{
    "asset" : {
        "generator" : "Khronos glTF Blender I/O v1.7.33",
        "version" : "2.0"
    },
    "scene" : 0,
    "scenes" : [
        {
            "name" : "Scene",
            "nodes" : [
                0
            ]
        }
    ],
    "nodes" : [
        {
            "mesh" : 0,
            "name" : "Icosphere"
        }
    ],
    "materials" : [
        {
            "doubleSided" : true,
            "name" : "Material.002",
            "pbrMetallicRoughness" : {
                "baseColorFactor" : [
                    0.5604535937309265,
                    0.8000000715255737,
                    0.08020756393671036,
                    1
                ],
                "metallicFactor" : 0,
                "roughnessFactor" : 0.5
            }
        },
        {
            "doubleSided" : true,
            "name" : "Material.001",
            "pbrMetallicRoughness" : {
                "baseColorFactor" : [
                    0,
                    0.33835145831108093,
                    0.8563318252563477,
                    1
                ],
                "metallicFactor" : 0,
                "roughnessFactor" : 0.5
            }
        }
    ],
    "meshes" : [
        {
            "name" : "Icosphere",
            "primitives" : [
                {
                    "attributes" : {
                        "POSITION" : 0,
                        "NORMAL" : 1,
                        "TEXCOORD_0" : 2
                    },
                    "indices" : 3,
                    "material" : 0
                },
                {
                    "attributes" : {
                        "POSITION" : 4,
                        "NORMAL" : 5,
                        "TEXCOORD_0" : 6
                    },
                    "indices" : 7,
                    "material" : 1
                }
            ]
        }
    ],
    "accessors" : [
        {
            "bufferView" : 0,
            "componentType" : 5126,
            "count" : 358,
            "max" : [
                0.9999977350234985,
                0.9833465814590454,
                0.9999999403953552
            ],
            "min" : [
                -0.9288738965988159,
                -0.9598254561424255,
                -0.9763161540031433
            ],
            "type" : "VEC3"
        },
        {
            "bufferView" : 1,
            "componentType" : 5126,
            "count" : 358,
            "type" : "VEC3"
        },
        {
            "bufferView" : 2,
            "componentType" : 5126,
            "count" : 358,
            "type" : "VEC2"
        },
        {
            "bufferView" : 3,
            "componentType" : 5123,
            "count" : 1329,
            "type" : "SCALAR"
        },
        {
            "bufferView" : 4,
            "componentType" : 5126,
            "count" : 63,
            "max" : [
                0.8339172005653381,
                0.8768312335014343,
                0.8768311738967896
            ],
            "min" : [
                -0.8339172005653381,
                -0.8768312335014343,
                -0.8768311738967896
            ],
            "type" : "VEC3"
        },
        {
            "bufferView" : 5,
            "componentType" : 5126,
            "count" : 63,
            "type" : "VEC3"
        },
        {
            "bufferView" : 6,
            "componentType" : 5126,
            "count" : 63,
            "type" : "VEC2"
        },
        {
            "bufferView" : 7,
            "componentType" : 5123,
            "count" : 240,
            "type" : "SCALAR"
        }
    ],
    "bufferViews" : [
        {
            "buffer" : 0,
            "byteLength" : 4296,
            "byteOffset" : 0
        },
        {
            "buffer" : 0,
            "byteLength" : 4296,
            "byteOffset" : 4296
        },
        {
            "buffer" : 0,
            "byteLength" : 2864,
            "byteOffset" : 8592
        },
        {
            "buffer" : 0,
            "byteLength" : 2658,
            "byteOffset" : 11456
        },
        {
            "buffer" : 0,
            "byteLength" : 756,
            "byteOffset" : 14116
        },
        {
            "buffer" : 0,
            "byteLength" : 756,
            "byteOffset" : 14872
        },
        {
            "buffer" : 0,
            "byteLength" : 504,
            "byteOffset" : 15628
        },
        {
            "buffer" : 0,
            "byteLength" : 480,
            "byteOffset" : 16132
        }
    ],
    "buffers" : [
        {
            "byteLength" : 16612,
            "uri" : "data:application/octet-stream;base64,"
        }
    ]
}
